<?xml version="1.0" encoding="utf-8"?><!-- Uploaded to: SVG Repo, www.svgrepo.com, Generator: SVG Repo Mixer Tools -->
<svg fill="#000000" width="800px" height="800px" viewBox="0 0 24 24" id="curve-arrow-right-2" data-name="Flat Color" xmlns="http://www.w3.org/2000/svg" class="icon flat-color"><path id="primary" d="M21.26,11.45,13.63,5.23A1,1,0,0,0,12,6V8.86c-4.94-.8-8.14-5.38-8.18-5.43A1,1,0,0,0,2,4C2,9.57,4.64,16.13,12,16.91V20a1,1,0,0,0,.57.9A.94.94,0,0,0,13,21a1,1,0,0,0,.63-.23l7.63-6.22a2,2,0,0,0,0-3.1Z" style="fill: rgb(0, 0, 0);"></path></svg>